<svg width="148" height="36" viewBox="0 0 148 36" fill="none" xmlns="http://www.w3.org/2000/svg">
<path d="M3.576 35.384C1.656 35.384 0.696 34.392 0.696 32.408V3.848C0.696 2.856 0.936 2.104 1.416 1.592C1.928 1.048 2.584 0.775997 3.384 0.775997C4.12 0.775997 4.664 0.919997 5.016 1.208C5.4 1.464 5.848 1.912 6.36 2.552L23.496 24.776V3.704C23.496 1.752 24.456 0.775997 26.376 0.775997C28.264 0.775997 29.208 1.752 29.208 3.704V32.504C29.208 33.4 28.984 34.104 28.536 34.616C28.088 35.128 27.48 35.384 26.712 35.384C25.976 35.384 25.384 35.24 24.936 34.952C24.52 34.664 24.056 34.2 23.544 33.56L6.408 11.288V32.408C6.408 34.392 5.464 35.384 3.576 35.384ZM47.5943 35.48C44.9383 35.48 42.6503 34.984 40.7303 33.992C38.8103 33 37.3223 31.592 36.2663 29.768C35.2423 27.944 34.7303 25.784 34.7303 23.288C34.7303 20.856 35.2263 18.728 36.2183 16.904C37.2423 15.08 38.6343 13.656 40.3943 12.632C42.1863 11.576 44.2183 11.048 46.4903 11.048C49.8183 11.048 52.4423 12.104 54.3623 14.216C56.3143 16.328 57.2903 19.208 57.2903 22.856C57.2903 24.04 56.5223 24.632 54.9863 24.632H40.4903C40.9383 28.824 43.3383 30.92 47.6903 30.92C48.5223 30.92 49.4503 30.824 50.4743 30.632C51.5303 30.408 52.5223 30.04 53.4503 29.528C54.2823 29.048 54.9863 28.904 55.5623 29.096C56.1383 29.256 56.5383 29.592 56.7623 30.104C57.0182 30.616 57.0503 31.192 56.8583 31.832C56.6983 32.44 56.2503 32.968 55.5143 33.416C54.3943 34.12 53.0983 34.648 51.6263 35C50.1863 35.32 48.8423 35.48 47.5943 35.48ZM46.7303 15.128C44.9703 15.128 43.5463 15.672 42.4583 16.76C41.3703 17.848 40.7143 19.32 40.4903 21.176H52.2983C52.1703 19.224 51.6263 17.736 50.6663 16.712C49.7383 15.656 48.4263 15.128 46.7303 15.128ZM65.1139 35.384C63.0659 35.384 62.0419 34.36 62.0419 32.312V14.168C62.0419 12.152 63.0179 11.144 64.9699 11.144C66.9219 11.144 67.8979 12.152 67.8979 14.168V15.656C69.0499 12.904 71.5139 11.368 75.2899 11.048C76.6659 10.888 77.4339 11.672 77.5939 13.4C77.7539 15.096 76.9219 16.04 75.0979 16.232L74.0419 16.328C70.1059 16.712 68.1379 18.728 68.1379 22.376V32.312C68.1379 34.36 67.1299 35.384 65.1139 35.384ZM89.3348 35.48C83.5748 35.48 80.6948 32.248 80.6948 25.784V14.168C80.6948 12.152 81.6868 11.144 83.6708 11.144C85.6868 11.144 86.6948 12.152 86.6948 14.168V25.88C86.6948 27.544 87.0308 28.776 87.7028 29.576C88.3748 30.376 89.4468 30.776 90.9188 30.776C92.5188 30.776 93.8308 30.232 94.8548 29.144C95.8788 28.024 96.3908 26.552 96.3908 24.728V14.168C96.3908 12.152 97.3828 11.144 99.3668 11.144C101.383 11.144 102.391 12.152 102.391 14.168V32.312C102.391 34.36 101.415 35.384 99.4628 35.384C97.5108 35.384 96.5348 34.36 96.5348 32.312V31.496C94.9668 34.152 92.5668 35.48 89.3348 35.48ZM116.364 35.48C114.668 35.48 113.148 35.16 111.804 34.52C110.492 33.848 109.452 32.952 108.684 31.832C107.948 30.712 107.58 29.448 107.58 28.04C107.58 26.312 108.028 24.952 108.924 23.96C109.82 22.936 111.276 22.2 113.292 21.752C115.308 21.304 118.012 21.08 121.404 21.08H123.084V20.072C123.084 18.472 122.732 17.32 122.028 16.616C121.324 15.912 120.14 15.56 118.476 15.56C117.548 15.56 116.54 15.672 115.452 15.896C114.396 16.12 113.276 16.504 112.092 17.048C111.324 17.4 110.684 17.448 110.172 17.192C109.66 16.904 109.308 16.472 109.116 15.896C108.956 15.288 108.988 14.68 109.212 14.072C109.468 13.464 109.964 13.016 110.7 12.728C112.172 12.12 113.58 11.688 114.924 11.432C116.3 11.176 117.548 11.048 118.668 11.048C122.092 11.048 124.636 11.848 126.3 13.448C127.964 15.016 128.796 17.464 128.796 20.792V32.312C128.796 34.36 127.868 35.384 126.012 35.384C124.124 35.384 123.18 34.36 123.18 32.312V31.256C122.636 32.568 121.772 33.608 120.588 34.376C119.404 35.112 117.996 35.48 116.364 35.48ZM117.612 31.352C119.18 31.352 120.476 30.808 121.5 29.72C122.556 28.632 123.084 27.256 123.084 25.592V24.536H121.452C118.444 24.536 116.348 24.776 115.164 25.256C114.012 25.704 113.436 26.536 113.436 27.752C113.436 28.808 113.804 29.672 114.54 30.344C115.276 31.016 116.3 31.352 117.612 31.352ZM142.902 35.48C137.558 35.48 134.886 32.488 134.886 26.504V3.8C134.886 1.784 135.878 0.775997 137.862 0.775997C139.878 0.775997 140.886 1.784 140.886 3.8V26.216C140.886 29.096 142.086 30.536 144.486 30.536C144.742 30.536 144.982 30.536 145.206 30.536C145.43 30.504 145.654 30.472 145.878 30.44C146.326 30.376 146.63 30.504 146.79 30.824C146.95 31.112 147.03 31.72 147.03 32.648C147.03 33.448 146.87 34.072 146.55 34.52C146.23 34.968 145.702 35.24 144.966 35.336C144.294 35.432 143.606 35.48 142.902 35.48Z" fill="#619CFF"/>
</svg>
